<svg width="16" height="16" viewBox="0 0 16 16" fill="none" xmlns="http://www.w3.org/2000/svg">
  <path d="M8 1.33334C5.05448 1.33334 2.66667 3.72115 2.66667 6.66667C2.66667 10.3883 7.49333 14.475 7.74 14.6917C7.81344 14.7552 7.90475 14.79 8 14.79C8.09525 14.79 8.18656 14.7552 8.26 14.6917C8.50667 14.475 13.3333 10.3883 13.3333 6.66667C13.3333 3.72115 10.9455 1.33334 8 1.33334ZM8 9.33334C6.52724 9.33334 5.33333 8.13943 5.33333 6.66667C5.33333 5.19391 6.52724 4.00001 8 4.00001C9.47276 4.00001 10.6667 5.19391 10.6667 6.66667C10.6667 8.13943 9.47276 9.33334 8 9.33334Z" fill="#1C4A2A"/>
</svg>