<svg width="16" height="16" viewBox="0 0 16 16" fill="none" xmlns="http://www.w3.org/2000/svg">
  <path d="M15.3333 4.2C15.2483 4.15392 15.1533 4.12781 15.0563 4.12365C14.9593 4.11948 14.8624 4.13738 14.7733 4.17601L12 5.40001V4.66668C12 4.13624 11.7893 3.62754 11.4142 3.2525C11.0391 2.87745 10.5304 2.66668 10 2.66668H2.66666C2.13623 2.66668 1.62752 2.87745 1.25245 3.2525C0.877378 3.62754 0.666656 4.13624 0.666656 4.66668V11.3333C0.666656 11.8638 0.877378 12.3725 1.25245 12.7475C1.62752 13.1226 2.13623 13.3333 2.66666 13.3333H10C10.5304 13.3333 11.0391 13.1226 11.4142 12.7475C11.7893 12.3725 12 11.8638 12 11.3333V10.6L14.7733 11.824C14.8624 11.8627 14.9593 11.8805 15.0563 11.8764C15.1533 11.8722 15.2483 11.8461 15.3333 11.8C15.421 11.7539 15.4957 11.6888 15.5517 11.6101C15.6076 11.5314 15.6434 11.4415 15.6554 11.3467C15.656 11.3427 15.6566 11.3381 15.6573 11.334V4.66668C15.6566 4.66198 15.656 4.65728 15.6554 4.65334C15.6434 4.55854 15.6076 4.4686 15.5517 4.38987C15.4957 4.31114 15.421 4.24608 15.3333 4.2ZM10.6667 11.3333C10.6667 11.5102 10.5964 11.6798 10.4714 11.8048C10.3464 11.9298 10.1768 12 10 12H2.66666C2.48985 12 2.32028 11.9298 2.19526 11.8048C2.07023 11.6798 1.99999 11.5102 1.99999 11.3333V4.66668C1.99999 4.48987 2.07023 4.3203 2.19526 4.19527C2.32028 4.07025 2.48985 4.00001 2.66666 4.00001H10C10.1768 4.00001 10.3464 4.07025 10.4714 4.19527C10.5964 4.3203 10.6667 4.48987 10.6667 4.66668V11.3333ZM14.3333 10.1393L12 9.13334V6.86668L14.3333 5.86068V10.1393Z" fill="#1C4A2A"/>
</svg>